<?xml version="1.0" encoding="UTF-8"?> <svg xmlns="http://www.w3.org/2000/svg" id="uuid-1d37e88b-1c95-4ef6-91b9-bfa4b7e36cbf" data-name="Layer 2" width="480" height="480" viewBox="0 0 480 480"><g id="uuid-7ba539e8-33b4-4ee2-921c-5703b336c1fc" data-name="Layer 1"><rect width="480" height="480" style="fill: none; stroke-width: 0px;"></rect><path d="M252.14007,236.92552c0,1.84009-.8127,3.17415-3.32749,3.17415h-16.05476c-2.07011,0-3.25081-.59803-3.25081-2.51478s.8127-2.86747,3.25081-2.86747h19.38224v2.2081ZM322.9374,229.2585v-2.0701c0-1.91676.8127-3.17415,3.40416-3.17415h16.05476c2.20811,0,3.31216.65936,3.31216,2.72946,0,1.76342-.87405,2.57612-3.15881,2.57612l-19.61227-.06134ZM365.09072,215.04383v33.88826h16.23876v-24.61116h13.24862c4.50822,0,6.79298,1.41073,6.79298,5.75027v18.93756h16.20808v-20.27162c0-9.50712-5.24427-13.63197-20.04162-13.63197l-32.44682-.06134ZM325.22218,215.04383c-13.04927,0-18.27819,4.33954-18.27819,14.138v6.71632c0,8.4644,5.22892,13.03395,17.02081,13.03395h34.2716v-8.84775h-31.09746c-3.06681,0-4.12486-.88938-4.12486-3.17415v-1.3954h24.53449c8.4644,0,13.24862-2.65279,13.24862-8.98576v-1.53341c0-5.75027-2.86746-9.87513-17.23549-9.87513l-18.33952-.07667ZM273.08639,248.93209h16.20811v-22.18838c0-1.53341.59803-2.43811,2.59146-2.43811h12.5279v-9.20043h-18.01751c-9.66046,0-13.34062,3.6035-13.34062,9.64512l.03067,24.18181ZM217.68444,215.04383v8.92442h30.43811c3.06681,0,4.06352,1.04272,4.06352,3.25082v1.30339h-24.44249c-10.24314,0-13.3253,4.21687-13.3253,9.58378v1.31873c0,7.45235,5.96495,9.50712,17.68016,9.50712h17.98684c12.7426,0,18.26287-2.86747,18.26287-12.89594v-7.82037c0-8.47973-5.22892-13.11062-17.08214-13.11062l-33.58157-.06133ZM120.68121,233.96605c0,10.73384,5.44359,15.02737,19.52026,15.02737h30.88279v-9.20043h-28.52135c-3.38882,0-5.6736-1.53341-5.6736-6.40964v-2.8828c0-4.35487,2.13143-6.13362,5.59693-6.13362h28.59801v-9.20043h-31.32747c-13.80065,0-19.07557,5.81161-19.07557,15.10405v3.6955ZM175.88381,209.72291v39.27052h35.26831v-9.20043h-19.01423v-30.07008h-16.25408ZM74.67904,231.68127v-21.95836h-9.20043c-5.6736,0-8.90909,2.26944-12.26724,4.93756l-43.21137,34.33295h19.52025l28.75135-23.2771v23.2771h13.47864l27.84664-23.43043v23.43043h16.51477v-39.27051h-9.00108c-4.86089,0-8.24972,1.99343-11.63855,4.78423l-20.79298,17.17414Z" style="fill: #fff; stroke-width: 0px;"></path><path d="M456.55835,181.20157c-9.04708,0-21.78968,2.69879-35.60568,7.75903-12.35297,4.49131-24.17903,10.31693-35.26833,17.37348,10.63643-3.90912,21.85271-6.00828,33.18292-6.21029,15.85541,0,27.1413,6.13362,10.47314,27.34062,49.06898-32.20152,47.79627-46.18617,27.21795-46.18617" style="fill: #ff8000; stroke-width: 0px;"></path><path d="M100.34825,282.92769h10.05914v2.95947h-6.86965v3.49616h6.13362v2.97481h-6.13362v6.13362h-3.18949v-15.56407Z" style="fill: #fff; stroke-width: 0px;"></path><path d="M122.59797,290.85539v-.26068c0-4.69222,2.94414-7.9737,7.08434-7.9737s7.05366,3.25082,7.05366,7.9277v.26068c0,4.60022-2.95947,7.9737-7.08434,7.9737s-7.05366-3.26615-7.05366-7.9277ZM133.3318,290.85539v-.26068c0-3.06681-1.53341-5.01423-3.72618-5.01423s-3.68018,1.94742-3.68018,5.01423v.15334c0,3.06681,1.53341,5.02957,3.75684,5.02957s3.69551-1.93209,3.69551-4.99891l-.046.07667Z" style="fill: #fff; stroke-width: 0px;"></path><path d="M150.18393,282.92769h5.87295c1.55422-.07398,3.0732.47837,4.21687,1.53341.91598.97518,1.39255,2.28297,1.31873,3.61884h0c.10196,1.99147-1.05782,3.83239-2.89814,4.60022l3.32749,5.79627h-3.6955l-2.8828-5.13691h-2.02411v5.13691h-3.25081l.01533-15.54873ZM155.81152,290.59472c1.23426.16243,2.36651-.70646,2.52894-1.94074.01768-.13435.02321-.27002.01652-.40537h0c0-1.53341-.96604-2.34611-2.60678-2.34611h-2.31545v4.69222h2.37677Z" style="fill: #fff; stroke-width: 0px;"></path><path d="M175.10177,282.92769h3.38882l3.48083,6.33296,3.45017-6.33296h3.40416v15.57941h-3.17415v-9.96714l-3.68018,6.4403h0l-3.66484-6.3943v9.92114h-3.06681l-.13801-15.57941Z" style="fill: #fff; stroke-width: 0px;"></path><path d="M202.79508,292.4348v-9.50711h3.25082v9.56845c0,2.20811,1.0427,3.29682,2.71413,3.29682s2.72946-1.07338,2.72946-3.23549v-9.62978h3.20481v9.47645c0,4.30887-2.36143,6.3943-5.98027,6.3943s-5.91896-2.0701-5.91896-6.36364Z" style="fill: #fff; stroke-width: 0px;"></path><path d="M228.66363,282.92769h3.23549v12.6506h6.31762v2.97481h-9.55311v-15.62541Z" style="fill: #fff; stroke-width: 0px;"></path><path d="M256.11158,282.80501h3.06681l5.61227,15.70207h-3.31216l-1.19605-3.31215h-5.36692l-1.10405,3.31216h-3.23549l5.53559-15.70208ZM259.30107,292.26612l-1.70208-5.09091-1.71741,5.09091h3.41949Z" style="fill: #fff; stroke-width: 0px;"></path><path d="M295.84212,286.10184l-2.37678.64403-.52135-2.80613,3.80284-1.16538h2.23878v15.73274h-3.18949l.046-12.40526Z" style="fill: #fff; stroke-width: 0px;"></path><path d="M332.64386,285.88716h-3.92551v-2.95947h11.07119v3.06681h-3.94086v12.61992h-3.20481v-12.72726Z" style="fill: #fff; stroke-width: 0px;"></path><path d="M352.62413,282.92769h10.05914v2.91347h-6.82365v3.37349h6.02627v2.91347h-6.02627v3.48083h6.931v2.92881h-10.15114l-.01535-15.61007Z" style="fill: #fff; stroke-width: 0px;"></path><path d="M380.83878,282.80501h3.06681l5.59692,15.70207h-3.34281l-1.13471-3.31215h-5.38224l-1.13473,3.38882h-3.25084l5.5816-15.77874ZM384.02827,292.26612l-1.68676-5.09091-1.71741,5.09091h3.40416Z" style="fill: #fff; stroke-width: 0px;"></path><path d="M402.26046,282.92769h3.35816l3.48081,6.33296,3.48086-6.33296h3.41951v15.57941h-3.17416v-9.96714l-3.68016,6.4403h0l-3.66486-6.3943v9.92114h-3.15881l-.06135-15.57941Z" style="fill: #fff; stroke-width: 0px;"></path></g></svg> 